<!-- by TradingView --><svg width="56" height="56" viewBox="0 0 56 56" xmlns="http://www.w3.org/2000/svg"><path fill="#3BACCD" d="M0 0h56v56H0z"/><path d="M8 36h11.16v-2.6H12.3v-.12l3.25-3.2c2.67-2.46 3.56-3.68 3.56-5.56v-.02c0-2.64-2.25-4.5-5.53-4.5-3.28 0-5.73 1.93-5.73 4.84V25h3.02v-.17c.05-1.4 1.14-2.31 2.73-2.31 1.38 0 2.34.9 2.35 2.16v.02c0 1.08-.41 1.84-2.41 3.7L8 33.51V36Zm19.39 0c3.93 0 6.32-3.08 6.32-8v-.02c0-4.91-2.39-7.98-6.32-7.98s-6.32 3.07-6.32 7.98V28c0 4.92 2.39 8 6.32 8Zm0-2.6c-1.93 0-3.04-2-3.04-5.4v-.02c0-3.4 1.1-5.39 3.04-5.39 1.93 0 3.04 2 3.04 5.4V28c0 3.4-1.1 5.4-3.04 5.4ZM41.84 36c3.93 0 6.32-3.08 6.32-8v-.02c0-4.91-2.4-7.98-6.32-7.98-3.94 0-6.32 3.07-6.32 7.98V28c0 4.92 2.38 8 6.32 8Zm0-2.6c-1.94 0-3.05-2-3.05-5.4v-.02c0-3.4 1.11-5.39 3.05-5.39 1.93 0 3.04 2 3.04 5.4V28c0 3.4-1.11 5.4-3.04 5.4Z" fill="#fff"/></svg>