<?xml version="1.0" encoding="UTF-8"?>
<svg id="_레이어_1" data-name=" 레이어 1" xmlns="http://www.w3.org/2000/svg" viewBox="0 0 95.93 26">
  <defs>
    <style>
      .cls-1 {
        stroke: #0062ff;
      }

      .cls-1, .cls-2 {
        fill: #0062ff;
      }

      .cls-1, .cls-3 {
        stroke-miterlimit: 10;
        stroke-width: .25px;
      }

      .cls-4 {
        fill: #1bb200;
      }

      .cls-3 {
        fill: #f7f7f7;
        stroke: #f7f7f7;
      }

      .cls-5 {
        fill: #db9200;
      }
    </style>
  </defs>
  <path class="cls-4" d="M13.1,7.37c-.17-.65-.76-1.14-1.46-1.14s-1.3.48-1.46,1.14c-1.36.49-2.41,1.63-2.76,3.05-.08.34-.13.69-.13,1.05,0,.05,0,.1,0,.15.02.44.1.87.24,1.27.35,1.01,1.06,1.85,1.98,2.37.37.21.78.36,1.2.46,0-.1-.01-.2-.01-.3,0-.31.05-.61.13-.89-.4-.11-.76-.29-1.08-.53-.54-.4-.94-.97-1.13-1.63-.08-.28-.13-.58-.13-.89,0-.1,0-.2.01-.3.02-.26.08-.51.16-.75.29-.83.92-1.49,1.72-1.84.27.41.73.68,1.26.68s.99-.27,1.26-.68c.8.35,1.43,1.02,1.72,1.84h1.24c-.35-1.42-1.4-2.56-2.76-3.05Z"/>
  <path class="cls-5" d="M13.77,15.26c-.02-.44-.1-.87-.24-1.27-.32.24-.69.42-1.08.53.08.28.13.58.13.9,0,.1,0,.2-.01.3-.07.76-.41,1.44-.92,1.94-.29.28-.63.51-1.01.67-.23.1-.48.17-.74.21-.15.02-.31.03-.47.03-.7,0-1.35-.23-1.87-.62.15-.41.13-.89-.12-1.3-.25-.42-.67-.67-1.13-.72-.03-.17-.04-.34-.04-.51,0-.74.26-1.43.69-1.96l-.63-1.09c-.77.79-1.25,1.86-1.25,3.05,0,.3.03.58.09.86-.55.47-.7,1.28-.32,1.92.39.65,1.2.9,1.88.62.74.59,1.68.94,2.7.94.38,0,.74-.05,1.1-.14.4-.1.78-.26,1.12-.47.38-.22.71-.5,1.01-.82.7-.77,1.12-1.79,1.12-2.91,0-.05,0-.1,0-.15Z"/>
  <path class="cls-2" d="M18.13,16.24c.05-.27.08-.54.08-.82,0-1.19-.48-2.27-1.25-3.05-.28-.29-.61-.54-.97-.74-.37-.21-.78-.37-1.2-.46-.3-.07-.61-.1-.92-.1-.81,0-1.57.22-2.22.61-.38.22-.71.5-1.01.82.38.16.72.39,1.01.67.29-.28.63-.51,1.01-.67.37-.16.78-.24,1.21-.24.28,0,.55.04.81.1.4.11.76.29,1.08.53.22.16.41.35.58.56.43.54.69,1.22.69,1.96,0,.18-.02.35-.04.52-.45.07-.86.34-1.1.77-.21.39-.23.83-.1,1.21-.53.41-1.2.65-1.92.65-.16,0-.31-.01-.47-.03l-.63,1.09c.35.09.72.14,1.1.14,1.03,0,1.98-.36,2.72-.96.72.32,1.57.05,1.95-.66.36-.66.17-1.47-.4-1.91Z"/>
  <g>
    <path class="cls-3" d="M31.13,17.39h-1.2v-6.77l-2.53,4.81h-1.09l-2.55-4.81v6.77h-1.18v-8.83h1.5l2.78,5.27,2.75-5.27h1.53v8.83Z"/>
    <path class="cls-3" d="M35.02,11.11c1.72,0,2.46,1.64,2.48,1.7.42.85.24,1.92.24,1.92h-4.42c.16.9.91,1.52,1.71,1.52.93,0,1.41-.77,1.41-.77l1.03.49s-.75,1.45-2.45,1.45c-1.61,0-2.85-1.45-2.85-3.15s1.24-3.17,2.85-3.17ZM35.02,12.3c-.73,0-1.44.54-1.69,1.34h3.3c-.28-.82-.91-1.34-1.62-1.34Z"/>
    <path class="cls-3" d="M40.87,17.39c-.92,0-1.78-.86-1.78-1.92v-3.31h-1v-1.21h1v-2h1.22v2h1.52v1.21h-1.52v3.31c0,.41.19.62.56.62.19,0,.26-.05.41-.19l.84.94c-.33.32-.76.55-1.25.55Z"/>
    <path class="cls-3" d="M45.32,11.17c.65,0,1.36.35,1.83,1.09v-1.12h1.19v6.24h-1.19s0-.98,0-.98c-.5.77-1.17,1.09-1.83,1.09-1.58,0-2.83-1.46-2.83-3.17s1.24-3.15,2.83-3.15ZM47.11,14.32c-.01-1.12-.8-1.96-1.71-1.96s-1.71.84-1.71,1.96.79,1.96,1.71,1.96,1.7-.84,1.71-1.96Z"/>
    <path class="cls-3" d="M56.54,9.78h-2.38v7.62h-1.2v-7.62h-2.38v-1.21h5.96v1.21Z"/>
    <path class="cls-3" d="M60.27,10.87v1.21c-1.08,0-1.83,1.08-1.83,1.96v3.36h-1.19v-6.53h1.19v1.19c.38-.8,1.22-1.19,1.83-1.19Z"/>
    <path class="cls-3" d="M63.38,11.17c.65,0,1.36.35,1.83,1.09v-1.12h1.19v6.24h-1.19s0-.98,0-.98c-.5.77-1.17,1.09-1.83,1.09-1.58,0-2.83-1.46-2.83-3.17s1.24-3.15,2.83-3.15ZM65.17,14.32c-.01-1.12-.8-1.96-1.71-1.96s-1.71.84-1.71,1.96.79,1.96,1.71,1.96,1.7-.84,1.71-1.96Z"/>
    <path class="cls-3" d="M70.08,11.2c.6,0,1.36.31,1.81,1.08v-3.97h1.18v9h-1.18v-1c-.47.82-1.24,1.09-1.81,1.09-1.54,0-2.77-1.43-2.77-3.11s1.23-3.09,2.77-3.09ZM71.84,14.3c0-1.1-.77-1.91-1.66-1.91s-1.66.83-1.66,1.91.76,1.92,1.66,1.92,1.66-.8,1.66-1.92Z"/>
    <path class="cls-3" d="M76.84,11.11c1.72,0,2.46,1.64,2.48,1.7.42.85.24,1.92.24,1.92h-4.42c.16.9.91,1.52,1.71,1.52.93,0,1.41-.77,1.41-.77l1.03.49s-.75,1.45-2.45,1.45c-1.61,0-2.85-1.45-2.85-3.15s1.24-3.17,2.85-3.17ZM76.84,12.3c-.73,0-1.44.54-1.69,1.34h3.3c-.28-.82-.91-1.34-1.62-1.34Z"/>
    <path class="cls-3" d="M83.58,10.87v1.21c-1.08,0-1.83,1.08-1.83,1.96v3.36h-1.18v-6.53h1.18v1.19c.38-.8,1.22-1.19,1.83-1.19Z"/>
  </g>
  <path class="cls-1" d="M84.62,16.13l.93-.79c.42.63.94,1.13,1.8,1.13.97,0,1.84-.8,1.84-2.06,0-.99-.53-1.49-1.36-1.49-.5,0-.78.11-1.35.44l-.57-.49,1.06-4.38h4.33l-.24,1.29h-3.08l-.58,2.22c.29-.15.6-.23.97-.23,1.3,0,2.27.81,2.27,2.39,0,2.19-1.62,3.55-3.35,3.55-1.12,0-2.04-.59-2.68-1.58Z"/>
</svg>