<?xml version="1.0" encoding="utf-8"?>
<!-- Generator: Adobe Illustrator 24.0.1, SVG Export Plug-In . SVG Version: 6.00 Build 0)  -->
<svg version="1.1" xmlns="http://www.w3.org/2000/svg" xmlns:xlink="http://www.w3.org/1999/xlink" x="0px" y="0px"
	 viewBox="0 0 24 24" style="enable-background:new 0 0 24 24;" xml:space="preserve">
<style type="text/css">
	.st0{display:none;}
	.st1{display:inline;}
	.st2{fill:#FFFFFF;}
	.st3{display:inline;opacity:0;}
	.st4{fill:#ED1C24;}
	.st5{fill:none;stroke:#FFFFFF;stroke-width:2;stroke-miterlimit:10;}
	.st6{fill:none;stroke:#FFFFFF;stroke-width:2;stroke-linecap:round;stroke-miterlimit:10;}
	.st7{opacity:0;}
</style>
<g id="Layer_1" class="st0">
	<g class="st1">
		<g>
			<path class="st2" d="M7,8.98c0.28,0,0.5,0.22,0.5,0.5v5c0,0.28-0.22,0.5-0.5,0.5H6c-0.28,0-0.5-0.22-0.5-0.5v-5
				c0-0.28,0.22-0.5,0.5-0.5H7 M7,7.98H6c-0.83,0-1.5,0.67-1.5,1.5v5c0,0.83,0.67,1.5,1.5,1.5h1c0.83,0,1.5-0.67,1.5-1.5v-5
				C8.5,8.65,7.83,7.98,7,7.98L7,7.98z"/>
		</g>
		<g>
			<path class="st2" d="M17.5,20.43c-0.33,0-0.67-0.08-0.97-0.25l-3.68-2.05c-0.24-0.13-0.33-0.44-0.19-0.68
				c0.13-0.24,0.44-0.33,0.68-0.19l3.68,2.05c0.31,0.17,0.68,0.17,0.99-0.01c0.31-0.18,0.49-0.5,0.49-0.86V5.6
				c0-0.36-0.19-0.69-0.5-0.87c-0.31-0.18-0.69-0.18-1,0.01l-6,3.53c-0.3,0.18-0.49,0.51-0.49,0.86v5.96c0,0.36,0.2,0.7,0.51,0.87
				c0.24,0.13,0.33,0.44,0.19,0.68c-0.13,0.24-0.44,0.33-0.68,0.19c-0.63-0.35-1.03-1.02-1.03-1.75V9.13c0-0.71,0.38-1.37,0.99-1.72
				l6-3.53c0.63-0.37,1.38-0.37,2.01-0.01c0.63,0.36,1.01,1.01,1.01,1.74v12.83c0,0.72-0.37,1.36-0.99,1.72
				C18.2,20.34,17.85,20.43,17.5,20.43z"/>
		</g>
	</g>
	<g class="st3">
		<rect x="0" class="st4" width="24" height="24"/>
	</g>
	<g class="st3">
		<rect x="2" y="2" class="st4" width="20" height="20"/>
	</g>
</g>
<g id="Layer_2">
	<path class="st5" d="M6,15.98H5c-0.83,0-1.5-0.67-1.5-1.5v-5c0-0.83,0.67-1.5,1.5-1.5h1c0.83,0,1.5,0.67,1.5,1.5v5
		C7.5,15.3,6.83,15.98,6,15.98z"/>
	<path class="st6" d="M11.77,16.4C11.3,16.14,11,15.64,11,15.09V8.84c0-0.35,0.19-0.68,0.49-0.86l6.25-3.68
		C18.74,3.72,20,4.44,20,5.6v12.83c0,1.14-1.23,1.87-2.23,1.31l-3.68-2.05"/>
</g>
<g id="가이드">
	<g class="st7">
		<rect x="0" class="st4" width="24" height="24"/>
	</g>
	<g class="st7">
		<rect x="2" y="2" class="st4" width="20" height="20"/>
	</g>
</g>
</svg>
