<?xml version="1.0" encoding="utf-8"?>
<!-- Generator: Adobe Illustrator 24.0.1, SVG Export Plug-In . SVG Version: 6.00 Build 0)  -->
<svg version="1.1" id="Layer_1" xmlns="http://www.w3.org/2000/svg" xmlns:xlink="http://www.w3.org/1999/xlink" x="0px" y="0px"
	 viewBox="0 0 24 24" style="enable-background:new 0 0 24 24;" xml:space="preserve">
<style type="text/css">
	.st0{fill:#5F6368;}
</style>
<path className="st0" d="M12,15c0.83,0,1.54-0.29,2.13-0.88C14.71,13.54,15,12.83,15,12s-0.29-1.54-0.88-2.13S12.83,9,12,9
	s-1.54,0.29-2.13,0.88C9.29,10.46,9,11.17,9,12s0.29,1.54,0.88,2.13C10.46,14.71,11.17,15,12,15z M12,17
	c-1.38,0-2.56-0.49-3.54-1.46C7.49,14.56,7,13.38,7,12s0.49-2.56,1.46-3.54S10.62,7,12,7s2.56,0.49,3.54,1.46S17,10.62,17,12
	s-0.49,2.56-1.46,3.54C14.56,16.51,13.38,17,12,17z M5,13H1v-2h4V13z M23,13h-4v-2h4V13z M11,5V1h2v4H11z M11,23v-4h2v4H11z
	 M6.4,7.75L3.88,5.32L5.3,3.85l2.4,2.5L6.4,7.75z M18.7,20.15l-2.43-2.52l1.33-1.38l2.52,2.42L18.7,20.15z M16.25,6.4l2.43-2.52
	l1.47,1.42l-2.5,2.4L16.25,6.4z M3.85,18.7l2.52-2.43l1.38,1.33l-2.42,2.52L3.85,18.7z"/>
</svg>
