<?xml version="1.0" encoding="UTF-8"?>
<svg id="_레이어_1" data-name=" 레이어 1" xmlns="http://www.w3.org/2000/svg" viewBox="0 0 95.93 26">
  <defs>
    <style>
      .cls-1 {
        stroke: #0027b3;
      }

      .cls-1, .cls-2 {
        stroke-miterlimit: 10;
        stroke-width: .25px;
      }

      .cls-1, .cls-3 {
        fill: #0027b3;
      }

      .cls-4 {
        fill: #ce9300;
      }

      .cls-2 {
        fill: #111;
        stroke: #000;
      }

      .cls-5 {
        fill: #118900;
      }
    </style>
  </defs>
  <path class="cls-5" d="M13.1,7.37c-.17-.65-.76-1.14-1.46-1.14s-1.3.48-1.46,1.14c-1.36.49-2.41,1.63-2.76,3.05-.08.34-.13.69-.13,1.05,0,.05,0,.1,0,.15.02.44.1.87.24,1.27.35,1.01,1.06,1.85,1.98,2.37.37.21.78.36,1.2.46,0-.1-.01-.2-.01-.3,0-.31.05-.61.13-.89-.4-.11-.76-.29-1.08-.53-.54-.4-.94-.97-1.13-1.63-.08-.28-.13-.58-.13-.89,0-.1,0-.2.01-.3.02-.26.08-.51.16-.75.29-.83.92-1.49,1.72-1.84.27.41.73.68,1.26.68s.99-.27,1.26-.68c.8.35,1.43,1.02,1.72,1.84h1.24c-.35-1.42-1.4-2.56-2.76-3.05Z"/>
  <path class="cls-4" d="M13.77,15.26c-.02-.44-.1-.87-.24-1.27-.32.24-.69.42-1.08.53.08.28.13.58.13.9,0,.1,0,.2-.01.3-.07.76-.41,1.44-.92,1.94-.29.28-.63.51-1.01.67-.23.1-.48.17-.74.21-.15.02-.31.03-.47.03-.7,0-1.35-.23-1.87-.62.15-.41.13-.89-.12-1.3-.25-.42-.67-.67-1.13-.72-.03-.17-.04-.34-.04-.51,0-.74.26-1.43.69-1.96l-.63-1.09c-.77.79-1.25,1.86-1.25,3.05,0,.3.03.58.09.86-.55.47-.7,1.28-.32,1.92.39.65,1.2.9,1.88.62.74.59,1.68.94,2.7.94.38,0,.74-.05,1.1-.14.4-.1.78-.26,1.12-.47.38-.22.71-.5,1.01-.82.7-.77,1.12-1.79,1.12-2.91,0-.05,0-.1,0-.15Z"/>
  <path class="cls-3" d="M18.13,16.24c.05-.27.08-.54.08-.82,0-1.19-.48-2.27-1.25-3.05-.28-.29-.61-.54-.97-.74-.37-.21-.78-.37-1.2-.46-.3-.07-.61-.1-.92-.1-.81,0-1.57.22-2.22.61-.38.22-.71.5-1.01.82.38.16.72.39,1.01.67.29-.28.63-.51,1.01-.67.37-.16.78-.24,1.21-.24.28,0,.55.04.81.1.4.11.76.29,1.08.53.22.16.41.35.58.56.43.54.69,1.22.69,1.96,0,.18-.02.35-.04.52-.45.07-.86.34-1.1.77-.21.39-.23.83-.1,1.21-.53.41-1.2.65-1.92.65-.16,0-.31-.01-.47-.03l-.63,1.09c.35.09.72.14,1.1.14,1.03,0,1.98-.36,2.72-.96.72.32,1.57.05,1.95-.66.36-.66.17-1.47-.4-1.91Z"/>
  <g>
    <polygon class="cls-2" points="26.86 13.83 24.08 8.56 22.57 8.56 22.57 17.39 23.76 17.39 23.76 10.63 26.31 15.44 27.4 15.44 29.93 10.63 29.93 17.39 31.13 17.39 31.13 8.56 29.6 8.56 26.86 13.83"/>
    <path class="cls-2" d="M35.02,11.11c-1.61,0-2.85,1.45-2.85,3.17s1.24,3.15,2.85,3.15c1.7,0,2.45-1.45,2.45-1.45l-1.03-.49s-.48.77-1.41.77c-.8,0-1.55-.62-1.71-1.52h4.42s.18-1.07-.24-1.92c-.02-.06-.76-1.7-2.48-1.7ZM33.34,13.64c.25-.8.96-1.34,1.69-1.34s1.33.53,1.62,1.34h-3.3Z"/>
    <path class="cls-2" d="M40.87,16.1c-.36,0-.56-.22-.56-.62v-3.31h1.52v-1.21h-1.52v-2h-1.22v2h-1v1.21h1v3.31c0,1.06.85,1.92,1.78,1.92.49,0,.92-.23,1.25-.55l-.84-.94c-.15.14-.22.19-.41.19Z"/>
    <path class="cls-2" d="M47.16,12.26c-.48-.74-1.18-1.09-1.83-1.09-1.58,0-2.83,1.45-2.83,3.15s1.24,3.17,2.83,3.17c.66,0,1.33-.32,1.83-1.09v1h1.18v-6.25h-1.18v1.12ZM45.4,16.28c-.92,0-1.71-.84-1.71-1.96s.79-1.96,1.71-1.96,1.7.84,1.71,1.96c-.01,1.12-.8,1.96-1.71,1.96Z"/>
    <polygon class="cls-2" points="50.58 9.78 52.96 9.78 52.96 17.39 54.16 17.39 54.16 9.78 56.54 9.78 56.54 8.56 50.58 8.56 50.58 9.78"/>
    <path class="cls-2" d="M58.44,12.06v-1.19h-1.18v6.53h1.18v-3.36c0-.88.75-1.96,1.83-1.96v-1.21c-.62,0-1.46.38-1.83,1.19Z"/>
    <path class="cls-2" d="M65.22,12.26c-.48-.74-1.18-1.09-1.83-1.09-1.58,0-2.83,1.45-2.83,3.15s1.24,3.17,2.83,3.17c.66,0,1.33-.32,1.83-1.09v1h1.18v-6.25h-1.18v1.12ZM63.46,16.28c-.92,0-1.71-.84-1.71-1.96s.79-1.96,1.71-1.96,1.7.84,1.71,1.96c-.01,1.12-.8,1.96-1.71,1.96Z"/>
    <path class="cls-2" d="M71.89,12.28c-.46-.77-1.21-1.08-1.81-1.08-1.54,0-2.77,1.43-2.77,3.09s1.23,3.11,2.77,3.11c.57,0,1.34-.28,1.81-1.09v1h1.18v-9h-1.18v3.97ZM70.17,16.22c-.9,0-1.66-.83-1.66-1.92s.76-1.91,1.66-1.91,1.66.8,1.66,1.91-.77,1.92-1.66,1.92Z"/>
    <path class="cls-2" d="M76.84,11.11c-1.61,0-2.85,1.45-2.85,3.17s1.24,3.15,2.85,3.15c1.7,0,2.45-1.45,2.45-1.45l-1.03-.49s-.48.77-1.41.77c-.8,0-1.55-.62-1.71-1.52h4.42s.18-1.07-.24-1.92c-.02-.06-.76-1.7-2.48-1.7ZM75.15,13.64c.25-.8.96-1.34,1.69-1.34s1.33.53,1.62,1.34h-3.3Z"/>
    <path class="cls-2" d="M81.75,12.06v-1.19h-1.18v6.53h1.18v-3.36c0-.88.75-1.96,1.83-1.96v-1.21c-.62,0-1.46.38-1.83,1.19Z"/>
  </g>
  <path class="cls-1" d="M84.62,16.13l.93-.79c.42.63.94,1.13,1.8,1.13.97,0,1.84-.8,1.84-2.06,0-.99-.53-1.49-1.36-1.49-.5,0-.78.11-1.35.44l-.57-.49,1.06-4.38h4.33l-.24,1.29h-3.08l-.58,2.22c.29-.15.6-.23.97-.23,1.3,0,2.27.81,2.27,2.39,0,2.19-1.62,3.55-3.35,3.55-1.12,0-2.04-.59-2.68-1.58Z"/>
</svg>