<svg width="179" height="48" viewBox="0 0 179 48" fill="none" xmlns="http://www.w3.org/2000/svg">
<g clip-path="url(#clip0_75_17)">
<path d="M24.1451 0C19.956 0 16.0324 1.068 12.5917 2.928L17.1551 8.244L20.3906 11.916C21.6944 11.472 23.0948 11.232 24.5435 11.232C31.6422 11.232 37.4008 16.956 37.4008 24.012C37.4008 28.992 34.5396 33.3 30.3625 35.4C30.109 35.544 25.4007 38.184 17.3362 38.184L4.63586 38.148C9.03028 44.124 16.129 48 24.1331 48C37.4733 48 48.2782 37.26 48.2782 24C48.2782 10.74 37.4853 0 24.1451 0Z" fill="#ED1C24"/>
<path d="M5.08255 9.28801L14.7889 15.708C15.7909 14.532 17.0103 13.548 18.3745 12.804L9.95987 4.59601C8.11277 5.92801 6.4709 7.51201 5.08255 9.30001V9.28801Z" fill="#ED1C24"/>
<path d="M13.9921 22.512L25.8836 27.072V24.276L15.7547 18.552C14.9579 19.596 14.3301 20.892 13.9921 22.512Z" fill="#ED1C24"/>
<path d="M17.0344 17.196L25.8836 23.052V20.136L20.7648 15.144C19.4731 15.576 18.1692 16.224 17.0344 17.196Z" fill="#ED1C24"/>
<path d="M25.8836 31.476V28.26L13.7265 24.456C13.6058 26.316 13.811 28.5 14.4388 31.092C14.4388 31.092 11.6621 28.224 11.65 23.808L0.301814 20.244C0.108653 21.468 0 22.716 0 24C0 26.604 0.42254 29.124 1.19518 31.476H25.8836Z" fill="#ED1C24"/>
<path d="M0.941666 17.376L11.7345 21.696C12.0001 20.112 12.5796 18.636 13.4006 17.328L3.5252 11.508C2.41452 13.32 1.53322 15.288 0.941666 17.376Z" fill="#ED1C24"/>
<path d="M11.5052 32.94H1.73845C2.25757 34.212 2.87327 35.436 3.59762 36.6H21.0304L23.2638 34.26H12.7728L11.5172 32.94H11.5052Z" fill="#ED1C24"/>
<path d="M174.171 28.932C172.565 31.392 169.789 33.012 166.614 33.012C161.64 33.012 157.607 29.004 157.607 24.06C157.607 19.116 161.64 15.108 166.614 15.108C169.801 15.108 172.589 16.752 174.183 19.224L178.988 12.528C175.909 9.25201 171.515 7.20001 166.65 7.20001C157.318 7.20001 149.76 14.724 149.76 23.988C149.76 33.252 157.33 40.776 166.65 40.776C171.479 40.776 175.825 38.76 178.903 35.532L174.159 28.908L174.171 28.932Z" fill="#ED1C24"/>
<path d="M114.726 28.932C113.12 31.392 110.343 33.012 107.168 33.012C102.194 33.012 98.1621 29.004 98.1621 24.06C98.1621 19.116 102.194 15.108 107.168 15.108C110.355 15.108 113.144 16.752 114.738 19.224L119.543 12.528C116.464 9.25201 112.07 7.20001 107.204 7.20001C97.8723 7.20001 90.3149 14.724 90.3149 23.988C90.3149 33.252 97.8844 40.776 107.204 40.776C112.033 40.776 116.38 38.76 119.458 35.532L114.714 28.908L114.726 28.932Z" fill="#ED1C24"/>
<path d="M122.766 7.70401H135.454C142.336 7.70401 146.549 10.872 146.549 16.548C146.549 19.524 145.33 21.672 143.036 23.208C146.175 24.6 147.575 27.252 147.575 30.42C147.575 37.26 142.239 40.284 135.684 40.284H122.754V7.70401H122.766ZM135.201 20.916C137.41 20.916 138.593 19.404 138.593 17.412C138.593 15.42 137.422 14.112 135.068 14.112H130.613V20.916H135.201ZM135.732 33.924C138.219 33.924 139.668 31.86 139.668 30.012C139.668 28.164 138.352 26.16 135.937 26.16H130.601V33.924H135.732Z" fill="#ED1C24"/>
<path d="M70.7694 7.21201C61.4373 7.21201 53.8799 14.736 53.8799 24C53.8799 33.264 61.4494 40.788 70.7694 40.788C80.0894 40.788 87.6589 33.264 87.6589 24C87.6589 14.736 80.0894 7.21201 70.7694 7.21201ZM70.7211 33.024C65.7472 33.024 61.715 29.016 61.715 24.072C61.715 19.128 65.7472 15.12 70.7211 15.12C75.695 15.12 79.7273 19.128 79.7273 24.072C79.7273 29.016 75.695 33.024 70.7211 33.024Z" fill="#ED1C24"/>
</g>
<defs>
<clipPath id="clip0_75_17">
<rect width="179" height="48" fill="white"/>
</clipPath>
</defs>
</svg>
