<svg width="87px" height="26px" viewBox="0 0 87 26" version="1.1" xmlns="http://www.w3.org/2000/svg" xmlns:xlink="http://www.w3.org/1999/xlink">
    <g id="pblc-wordmark" transform="translate(23.391400, 2.020020)">
        <path d="M57.5794,18.09968 C59.6437,18.09968 61.7311,16.92788 62.8334,14.98138 L61.0273,13.80948 C60.3706,14.98138 59.2495,15.82598 57.5762,15.82598 C55.7472,15.82598 54.0823,14.46698 54.0823,11.93408 C54.0823,9.26098 55.7472,8.04208 57.5762,8.04208 C58.9358,8.04208 60.039,8.60448 61.0273,9.77638 L62.6221,8.34738 C62.067,7.5557 61.3304,6.90838 60.4739,6.45953 C59.6173,6.01068 58.6657,5.77334 57.6986,5.76736 C54.6491,5.76736 51.6467,8.04208 51.6467,11.93508 C51.6467,15.82808 54.578,18.09968 57.5794,18.09968 Z"></path>
        <path d="M48.2448,3.86895 C48.61,3.87144 48.9678,3.76529 49.2725,3.56401 C49.5773,3.36273 49.8152,3.07542 49.9562,2.73859 C50.0972,2.40176 50.1348,2.03063 50.0642,1.67239 C49.9936,1.31415 49.8181,0.98498 49.5599,0.72673 C49.3017,0.46848 48.9725,0.29281 48.6142,0.22206 C48.2558,0.15131 47.8845,0.18867 47.5475,0.3294 C47.2105,0.47012 46.9229,0.70786 46.7214,1.01237 C46.5198,1.31689 46.4134,1.67443 46.4157,2.03954 C46.4128,2.28051 46.4581,2.51964 46.5489,2.74285 C46.6398,2.96607 46.7744,3.16887 46.9448,3.33932 C47.1152,3.50977 47.318,3.64443 47.5413,3.73539 C47.7645,3.82635 48.0037,3.87176 48.2448,3.86895 Z"></path>
        <polygon points="49.3711 6.14266 47.0495 6.14266 47.0495 17.81848 49.3711 17.81848"></polygon>
        <polygon points="43.9529 0 41.4201 0 41.4201 17.81848 43.9529 17.81848"></polygon>
        <path d="M33.4931,5.76736 C31.7341,5.76736 30.4436,6.49913 29.7168,7.66682 L29.7168,0 L27.1369,0 L27.1369,17.81848 L29.7168,17.81848 L29.7168,16.34138 C30.4488,17.44318 31.7341,18.09968 33.4931,18.09968 C36.8699,18.09968 39.2156,15.49778 39.2156,11.93198 C39.2156,8.55648 36.7297,5.76736 33.4931,5.76736 Z M33.2839,15.70888 C30.9612,15.70888 29.3905,14.14088 29.3905,11.93408 C29.3905,9.77638 30.9592,8.15918 33.2839,8.15918 C35.3755,8.15918 36.872,9.65928 36.872,11.93408 C36.8699,14.13768 35.3692,15.70888 33.2818,15.70888 L33.2839,15.70888 Z"></path>
        <path d="M18.6912,17.98268 C19.9346,17.98268 20.9657,17.44318 21.7406,16.34138 L21.7406,17.81848 L24.1564,17.81848 L24.1564,6.14266 L21.6716,6.14266 L21.6716,12.89478 C21.6716,14.60608 20.6394,15.70888 18.9526,15.70888 C17.522,15.70888 16.7481,14.46598 16.7481,12.89478 L16.7481,6.14266 L14.2131,6.14266 L14.2131,13.29408 C14.2131,16.01318 15.9021,17.98268 18.6912,17.98268 Z"></path>
        <path d="M6.4974,5.76736 C4.8085,5.76736 3.5191,6.49913 2.4628,7.66682 L2.4628,6.14265 L0,6.14265 L0,21.99168 L2.4628,21.99168 L2.4628,16.34658 C3.5191,17.44848 4.8085,18.10498 6.4974,18.10498 C9.8512,18.10498 12.267,15.31478 12.267,11.93718 C12.267,8.34738 9.8512,5.76736 6.4974,5.76736 Z M6.1691,15.70888 C3.7763,15.70888 2.3457,14.14088 2.3457,11.93408 C2.3457,9.77638 3.7763,8.15918 6.1691,8.15918 C8.4436,8.15918 9.8512,9.77638 9.8512,11.93408 C9.8512,14.13768 8.4426,15.70888 6.1691,15.70888 Z"></path>
    </g>
    <g id="pblc-icon"  fill="#0035d9">
        <path d="M7.79749,15.595 C12.1039,15.595 15.595,12.1039 15.595,7.79749 C15.595,3.49106 12.1039,0 7.79749,0 C3.49105,0 0,3.49106 0,7.79749 C0,12.1039 3.49105,15.595 7.79749,15.595 Z" id="pblc-circle-top"></path>
        <path d="M3.89874,26 C4.93479,25.9931 5.92608,25.5768 6.65644,24.8419 C7.38679,24.1071 7.79696,23.1132 7.79749,22.0772 C7.79749,19.9639 6.03609,18.2025 3.89874,18.2025 C1.7614,18.2025 0,19.9639 0,22.0772 C0.000529819,23.1132 0.410695,24.1071 1.14105,24.8419 C1.8714,25.5768 2.8627,25.9931 3.89874,26 Z" id="pblc-circle-bottom"></path>
    </g>
</svg>