<svg viewBox="0 0 846.66 846.66" xml:space="preserve" xmlns="http://www.w3.org/2000/svg" shape-rendering="geometricPrecision" text-rendering="geometricPrecision" image-rendering="optimizeQuality" fill-rule="evenodd" clip-rule="evenodd"><path d="M214.72 93.49h417.22c112.48 0 204.43 91.95 204.43 204.43s-91.95 204.43-204.43 204.43h-81.17v230.17c0 19.55-24.58 27.92-36.7 13.01L297.38 502.35h-82.66c-112.48 0-204.43-91.95-204.43-204.43S102.24 93.49 214.72 93.49zm17.38 264.82c-27.16 0-27.16-41.3 0-41.3h382.46c27.16 0 27.16 41.3 0 41.3H232.1zm0-79.47c-27.16 0-27.16-41.31 0-41.31h382.46c27.16 0 27.16 41.31 0 41.31H232.1zM631.94 134.8H214.72c-89.68 0-163.13 73.44-163.13 163.12s73.45 163.13 163.13 163.13l91.88.02c5.68.01 11.34 2.34 15.41 6.91l187.45 210.36V481.7c0-11.41 9.25-20.65 20.66-20.65h101.82c89.68 0 163.13-73.45 163.13-163.13 0-89.68-73.45-163.12-163.13-163.12z" fill="#e3e3e3" fill-rule="nonzero" className="fill-000000"></path></svg>