<svg viewBox="0 0 846.66 846.66" xml:space="preserve" xmlns="http://www.w3.org/2000/svg" shape-rendering="geometricPrecision" text-rendering="geometricPrecision" image-rendering="optimizeQuality" fill-rule="evenodd" clip-rule="evenodd"><path d="M100.77 261.2h16.37l.04-56.19c0-9.26 6.28-17.68 15.67-19.99L646.59 58.84c13.19-4.26 26.98 5.55 26.98 19.64V261.2h72.32c49.6 0 90.11 40.51 90.11 90.11v347.38c0 49.61-40.51 90.12-90.11 90.12H100.77c-49.6 0-90.11-40.51-90.11-90.12V351.31c0-49.6 40.51-90.11 90.11-90.11zm57.63 0h473.9V104.74l-473.9 116.4v40.06zm636.33 244.74H646.08v86.1h148.65v-86.1zm-169.28-41.27h169.28v-49.72H51.93v283.74c0 26.82 22.02 48.85 48.84 48.85h645.12c26.82 0 48.84-22.03 48.84-48.85v-65.38H625.45c-11.39 0-20.63-9.24-20.63-20.63V485.31c0-11.4 9.24-20.64 20.63-20.64zM51.93 373.69h742.8v-22.38c0-26.82-22.02-48.84-48.84-48.84H100.77c-26.82 0-48.84 22.02-48.84 48.84v22.38z" fill="#e3e3e3" fill-rule="nonzero" className="fill-000000"></path></svg>