<svg viewBox="0 0 846.66 846.66" xml:space="preserve" xmlns="http://www.w3.org/2000/svg" shape-rendering="geometricPrecision" text-rendering="geometricPrecision" image-rendering="optimizeQuality" fill-rule="evenodd" clip-rule="evenodd"><path d="M495.79 139.04h127.97c11.4 0 20.65 9.25 20.65 20.65v121.52l22.35-39.35c5.61-9.89 18.17-13.36 28.06-7.75l92.06 52.28c9.89 5.61 13.35 18.18 7.74 28.06L644.41 578.97v236.27c0 11.4-9.25 20.65-20.65 20.65H70c-11.4 0-20.64-9.25-20.64-20.65V159.69c0-11.4 9.24-20.65 20.64-20.65h127.98V84.35c0-11.4 9.24-20.64 20.64-20.64h42.47V31.42c0-11.4 9.24-20.65 20.64-20.65h130.3c11.4 0 20.64 9.25 20.64 20.65v32.29h42.47c11.4 0 20.65 9.24 20.65 20.64v54.69zM170.76 484.68c-27.16 0-27.16-41.29 0-41.29h270.77c27.15 0 27.15 41.29 0 41.29H170.76zm0-75.32c-27.16 0-27.16-41.29 0-41.29h270.77c27.15 0 27.15 41.29 0 41.29H170.76zm337.1 298.48a20.5 20.5 0 0 1-11.42 3.45H353.99c-8.28 0-15.42-4.87-18.71-11.9l-22.24-39.26-39.97 68.72c-7.31 12.62-24.94 13.74-33.89 2.57l-65.75-76.87c-17.58-20.56 13.71-47.33 31.29-26.78l47.31 55.32 43.42-74.65c7.87-13.54 27.79-13.81 35.72.16l34.78 61.4h109.12l-2.97-78.5c-.23-4.05.61-7.97 2.64-11.51l128.38-226.07v-37.2H90.65v477.87h512.47V651.68l-.52.91a20.413 20.413 0 0 1-8.78 8.29l-85.96 46.96zm7.89-51.18 26.66-14.57-27.81-15.79 1.15 30.36zm4.96-74.24 56.25 31.94c57.23-100.78 114.46-201.55 171.69-302.33l-56.26-31.95c-57.22 100.78-114.45 201.56-171.68 302.34zm82.41-306.99v-95.1H495.79v36.35c0 11.4-9.25 20.65-20.65 20.65H218.62c-11.4 0-20.64-9.25-20.64-20.65v-36.35H90.65v95.1h512.47zM281.73 105h-42.46V196.04h215.22V105h-42.46c-11.4 0-20.65-9.25-20.65-20.65V52.06h-89v32.29c0 11.4-9.25 20.65-20.65 20.65z" fill="#e3e3e3" fill-rule="nonzero" className="fill-000000"></path></svg>