<svg viewBox="0 0 846.66 846.66" xml:space="preserve" xmlns="http://www.w3.org/2000/svg" shape-rendering="geometricPrecision" text-rendering="geometricPrecision" image-rendering="optimizeQuality" fill-rule="evenodd" clip-rule="evenodd"><path d="M44.68 7.8h672.58c11.46 0 20.76 9.3 20.76 20.76v38.08h63.96c11.46 0 20.75 9.29 20.75 20.76v595.18c0 11.46-9.29 20.76-20.75 20.76h-63.96V818.1c0 11.46-9.3 20.76-20.76 20.76H44.68c-11.46 0-20.75-9.3-20.75-20.76V28.56c0-11.46 9.29-20.76 20.75-20.76zm693.34 100.36v553.66h43.2V108.16h-43.2zm-543.78 85.51c-27.3 0-27.3-41.52 0-41.52H567.7c27.3 0 27.3 41.52 0 41.52H194.24zm0 500.84c-27.3 0-27.3-41.52 0-41.52H567.7c27.3 0 27.3 41.52 0 41.52H194.24zm0-375.63c-27.3 0-27.3-41.51 0-41.51H567.7c27.3 0 27.3 41.51 0 41.51H194.24zm0 125.21c-27.3 0-27.3-41.51 0-41.51H567.7c27.3 0 27.3 41.51 0 41.51H194.24zm0 125.21c-27.3 0-27.3-41.52 0-41.52H567.7c27.3 0 27.3 41.52 0 41.52H194.24zM696.5 49.32H65.44v748.02H696.5V49.32z" fill="#2196f3" fill-rule="nonzero" className="fill-000000"></path></svg>