<svg viewBox="0 0 846.66 846.66" xml:space="preserve" xmlns="http://www.w3.org/2000/svg" shape-rendering="geometricPrecision" text-rendering="geometricPrecision" image-rendering="optimizeQuality" fill-rule="evenodd" clip-rule="evenodd"><path d="M608.85 253.52c-27.13 0-27.13-41.26 0-41.26h188.71c11.4 0 20.63 9.24 20.63 20.63V815.5c0 11.39-9.23 20.63-20.63 20.63H49.1c-11.4 0-20.63-9.24-20.63-20.63V232.89c0-11.39 9.23-20.63 20.63-20.63h188.71c27.13 0 27.13 41.26 0 41.26H69.73v466.93h72.5V553.96c0-11.39 9.23-20.63 20.63-20.63h68.04c11.39 0 20.63 9.24 20.63 20.63v166.49h41.66V449.77c0-11.39 9.24-20.63 20.63-20.63h68.05c11.39 0 20.63 9.24 20.63 20.63v270.68h41.66V553.96c0-11.39 9.24-20.63 20.63-20.63h68.04c11.4 0 20.63 9.24 20.63 20.63v166.49h41.67V343.46c0-11.4 9.24-20.64 20.63-20.64h68.04c11.4 0 20.63 9.24 20.63 20.64v376.99h72.5V253.52H608.85zM402.7 30.88c0-27.14 41.26-27.14 41.26 0v24.03h69.46c27.13 0 27.13 41.26 0 41.26h-69.46v94.25h24.8c48.66 0 88.39 39.73 88.39 88.38 0 48.66-39.73 88.39-88.39 88.39h-24.8v24.03c0 27.13-41.26 27.13-41.26 0v-24.03h-69.45c-27.14 0-27.14-41.26 0-41.26h69.45v-94.25h-24.8c-48.65 0-88.38-39.73-88.38-88.39 0-48.65 39.73-88.38 88.38-88.38h24.8V30.88zm41.26 200.8v94.25h24.8c25.87 0 47.12-21.25 47.12-47.13 0-25.87-21.25-47.12-47.12-47.12h-24.8zm-41.26-41.26V96.17h-24.8c-25.87 0-47.12 21.25-47.12 47.12 0 25.87 21.25 47.13 47.12 47.13h24.8zm233.69 530.03h26.78V364.09h-26.78v356.36zm-150.97 0h26.78V574.59h-26.78v145.86zm-150.97 0h26.78V470.4h-26.78v250.05zm-150.96 0h26.78V574.59h-26.78v145.86zM69.73 761.71v33.16h707.2v-33.16H69.73z" fill="#7d7d7d" fill-rule="nonzero" className="fill-000000"></path></svg>