<svg width="55" height="66" viewBox="0 0 55 66" fill="none" xmlns="http://www.w3.org/2000/svg">
<path d="M48.4335 20.314C47.3898 20.314 46.413 20.5963 45.5724 21.0858C45.3573 14.866 42.0806 9.42603 37.2044 6.2265L40.3167 1.59174L37.9514 0L34.6988 4.84477C32.3723 3.78941 29.7879 3.2022 27.0671 3.2022C24.3464 3.2022 21.7285 3.79743 19.3886 4.86617L16.1481 0.0414654L13.7841 1.63187L16.887 6.25325C12.0335 9.45679 8.7756 14.8834 8.56045 21.0858C7.71857 20.5963 6.74172 20.314 5.69806 20.314C2.55103 20.314 0 22.8675 0 26.0175V41.7022C0 44.8522 2.55103 47.4057 5.69806 47.4057C6.73638 47.4057 7.70922 47.1261 8.54709 46.6406V48.8316C8.54709 51.1938 10.4607 53.1092 12.8206 53.1092H14.2451V60.2386C14.2451 63.3886 16.7962 65.9421 19.9432 65.9421C23.0902 65.9421 25.6413 63.3886 25.6413 60.2386V53.1092H28.4903V60.2386C28.4903 63.3886 31.0413 65.9421 34.1883 65.9421C37.3354 65.9421 39.8864 63.3886 39.8864 60.2386V53.1092H41.3109C43.6708 53.1092 45.5845 51.1938 45.5845 48.8316V46.6406C46.4223 47.1261 47.3952 47.4057 48.4335 47.4057C51.5805 47.4057 54.1315 44.8522 54.1315 41.7022V26.0175C54.1315 22.8675 51.5805 20.314 48.4335 20.314ZM27.0644 6.05529C35.2387 6.05529 41.9497 12.3206 42.6699 20.314H11.4603C12.1805 12.3206 18.8915 6.05529 27.0644 6.05529ZM5.69672 44.5553C4.12388 44.5553 2.84769 43.2779 2.84769 41.7035V26.0189C2.84769 24.4445 4.12388 23.1671 5.69672 23.1671C7.26957 23.1671 8.54575 24.4445 8.54575 26.0189V41.7035C8.54575 43.2779 7.26957 44.5553 5.69672 44.5553ZM42.7354 48.8329C42.7354 49.6207 42.098 50.2588 41.3109 50.2588H37.0374V60.2399C37.0374 61.8142 35.7612 63.0917 34.1883 63.0917C32.6155 63.0917 31.3393 61.8142 31.3393 60.2399V50.2588H22.7922V60.2399C22.7922 61.8142 21.516 63.0917 19.9432 63.0917C18.3704 63.0917 17.0942 61.8142 17.0942 60.2399V50.2588H12.8206C12.0335 50.2588 11.3961 49.6207 11.3961 48.8329V23.1658H42.7368V48.8329H42.7354ZM51.2825 41.7022C51.2825 43.2765 50.0063 44.5539 48.4335 44.5539C46.8606 44.5539 45.5845 43.2765 45.5845 41.7022V26.0175C45.5845 24.4432 46.8606 23.1658 48.4335 23.1658C50.0063 23.1658 51.2825 24.4432 51.2825 26.0175V41.7022Z" fill="white"/>
<path d="M21.3245 13.1228H18.7V16.0754H21.3245V13.1228Z" fill="white"/>
<path d="M35.7596 13.1228H32.807V16.0754H35.7596V13.1228Z" fill="white"/>
</svg>
