<svg width="57" height="66" viewBox="0 0 57 66" fill="none" xmlns="http://www.w3.org/2000/svg">
<path d="M28.6246 15.6612H27.201V14.2377C27.201 4.92947 32.1305 0 41.4388 0H42.8623V1.42351C42.8623 10.7318 37.9328 15.6612 28.6246 15.6612ZM39.9618 2.90048C33.7679 3.32686 30.5292 6.56684 30.0842 12.7781C36.385 12.3518 39.5528 9.18262 39.9618 2.90048Z" fill="white"/>
<path d="M40.3916 65.9421C38.0667 65.9407 35.7771 65.3821 33.7164 64.3146C30.6788 62.7032 27.0303 62.7032 23.9927 64.3146C21.932 65.3821 19.6424 65.9394 17.3175 65.9421C7.6128 65.9421 0 52.7464 0 35.9049C0 25.6594 7.77538 17.3098 17.3188 17.3098C19.1058 17.3098 20.8807 17.6052 22.5688 18.1867L27.9272 20.0276C28.5409 20.2371 29.2075 20.2371 29.8212 20.0276L35.1606 18.1867C36.8433 17.6093 38.6114 17.3125 40.393 17.3098C45.6064 17.3098 50.477 19.7953 53.7963 24.1219L55.059 25.7842L53.039 26.3563C47.8513 27.8387 44.3951 32.6903 44.7244 38.0306C45.0536 43.3723 49.0788 47.7713 54.4087 48.6159L56.0508 48.8845L55.5454 50.4582C52.5512 60.0056 46.7241 65.9421 40.3916 65.9421ZM28.8457 60.2204C31.0094 60.2365 33.1392 60.771 35.0509 61.7767C36.697 62.6375 38.5301 63.0859 40.3916 63.0819C45.1186 63.0819 49.6099 58.5231 52.3155 51.0853C46.1009 49.3571 41.8128 43.7321 41.8345 37.335C41.8589 31.7731 45.1186 26.7242 50.2047 24.373C47.5532 21.6914 44.0713 20.1713 40.3916 20.1713C38.9297 20.1713 37.4787 20.413 36.0981 20.887L30.7411 22.728C29.5191 23.1443 28.1927 23.1443 26.9706 22.728L21.5947 20.887C20.2141 20.413 18.7617 20.1713 17.3012 20.1713C9.34563 20.1713 2.86953 27.2345 2.86953 35.9063C2.86953 50.6395 9.47163 63.0833 17.3012 63.0833C19.1627 63.0886 20.9958 62.6401 22.642 61.7781C24.5536 60.7723 26.6834 60.2392 28.8471 60.2217L28.8457 60.2204Z" fill="white"/>
</svg>
