<svg width="65" height="58" viewBox="0 0 65 58" fill="none" xmlns="http://www.w3.org/2000/svg">
<path d="M10.7151 38.7087H53.577C54.7611 38.7087 55.7205 37.7521 55.7205 36.5713V6.65354C55.7205 5.47276 54.7611 4.51611 53.577 4.51611H10.7151C9.53091 4.51611 8.57153 5.47276 8.57153 6.65354V36.5713C8.57153 37.7521 9.53091 38.7087 10.7151 38.7087ZM10.7151 6.65354H53.577V36.5713H10.7151V6.65354Z" fill="white"/>
<path d="M2.14354 57.942H62.1512C63.3354 57.942 64.2948 56.9853 64.2948 55.8046V52.599C64.2948 52.4638 64.2697 52.3286 64.2182 52.2021L60.0077 41.7078V3.44819C60.0077 1.67765 58.5686 0.242676 56.793 0.242676H7.50049C5.72488 0.242676 4.28582 1.67765 4.28582 3.44819V41.7078L0.0765997 52.2034C0.0251147 52.3286 0 52.4638 0 52.599V55.8046C0 56.9853 0.95938 57.942 2.14354 57.942ZM2.14354 55.8046V53.6671H62.1512V55.8046H2.14354ZM58.2107 42.9825L61.6401 51.531H44.6614L43.054 47.5316C42.7313 46.7189 41.9427 46.1868 41.0662 46.188H23.2285C22.3508 46.1855 21.5609 46.7189 21.2382 47.5316L19.6346 51.5297H2.65462L6.08402 42.9812H58.2107V42.9825ZM42.3508 51.531H21.9414L23.2273 48.3254H41.065L42.3508 51.531ZM7.50049 2.3801H56.7918C57.3832 2.3801 57.8629 2.85843 57.8629 3.44819V40.8463H6.42935V3.44819C6.42935 2.85843 6.90904 2.3801 7.50049 2.3801Z" fill="white"/>
<path d="M16.0734 16.2704C16.6649 16.2704 17.1445 15.7921 17.1445 15.201C17.1445 14.918 17.0315 14.6463 16.8306 14.446L15.4455 13.0649L16.8306 11.6837C17.2412 11.2593 17.2299 10.5831 16.8042 10.1724C16.3886 9.77294 15.7306 9.77294 15.3149 10.1724L13.1714 12.3098C12.7532 12.7268 12.7532 13.4029 13.1714 13.8212L15.3149 15.9586C15.5159 16.1589 15.7884 16.2716 16.0721 16.2716L16.0734 16.2704Z" fill="white"/>
<path d="M26.0314 15.9573C26.4496 16.3743 27.1276 16.3743 27.5471 15.9573L29.6906 13.8199C30.1088 13.4029 30.1088 12.7267 29.6906 12.3085L27.5471 10.1711C27.1214 9.76162 26.4433 9.77289 26.0314 10.1974C25.6308 10.6118 25.6308 11.268 26.0314 11.6824L27.4165 13.0636L26.0314 14.4447C25.6132 14.8616 25.6132 15.5378 26.0314 15.956V15.9573Z" fill="white"/>
<path d="M19.8808 16.1638C20.4107 16.428 21.0536 16.2139 21.3186 15.6855L23.4621 11.4119C23.7271 10.8835 23.5124 10.2411 22.9824 9.97817C22.4525 9.71396 21.8083 9.92808 21.5446 10.4565L19.4011 14.7301C19.1361 15.2585 19.3509 15.8996 19.8808 16.1638Z" fill="white"/>
<path d="M19.288 19.4758C19.288 18.886 18.8083 18.4077 18.2168 18.4077H15.0022C14.4107 18.4077 13.931 18.886 13.931 19.4758C13.931 20.0656 14.4107 20.5439 15.0022 20.5439H18.2168C18.8083 20.5439 19.288 20.0656 19.288 19.4758Z" fill="white"/>
<path d="M21.4315 19.4758C21.4315 20.0656 21.9112 20.5439 22.5027 20.5439H31.0755C31.667 20.5439 32.1467 20.0656 32.1467 19.4758C32.1467 18.886 31.667 18.4077 31.0755 18.4077H22.5027C21.9112 18.4077 21.4315 18.886 21.4315 19.4758Z" fill="white"/>
<path d="M26.7885 23.7492C26.7885 23.1595 26.3088 22.6812 25.7174 22.6812H17.1445C16.5531 22.6812 16.0734 23.1595 16.0734 23.7492C16.0734 24.339 16.5531 24.8173 17.1445 24.8173H25.7174C26.3088 24.8173 26.7885 24.339 26.7885 23.7492Z" fill="white"/>
<path d="M17.1445 26.9551C16.5531 26.9551 16.0734 27.4334 16.0734 28.0232C16.0734 28.6129 16.5531 29.0913 17.1445 29.0913H22.5027C23.0942 29.0913 23.5739 28.6129 23.5739 28.0232C23.5739 27.4334 23.0942 26.9551 22.5027 26.9551H17.1445Z" fill="white"/>
<path d="M47.149 26.9551H43.9343C43.3428 26.9551 42.8632 27.4334 42.8632 28.0232C42.8632 28.6129 43.3428 29.0913 43.9343 29.0913H47.149C47.7404 29.0913 48.2201 28.6129 48.2201 28.0232C48.2201 27.4334 47.7404 26.9551 47.149 26.9551Z" fill="white"/>
<path d="M25.7174 28.0241C25.7174 28.6139 26.1971 29.0922 26.7885 29.0922H39.6473C40.2387 29.0922 40.7184 28.6139 40.7184 28.0241C40.7184 27.4344 40.2387 26.9561 39.6473 26.9561H26.7885C26.1971 26.9561 25.7174 27.4344 25.7174 28.0241Z" fill="white"/>
<path d="M19.288 31.2297H17.1445C16.5531 31.2297 16.0734 31.7081 16.0734 32.2978C16.0734 32.8876 16.5531 33.3659 17.1445 33.3659H19.288C19.8795 33.3659 20.3592 32.8876 20.3592 32.2978C20.3592 31.7081 19.8795 31.2297 19.288 31.2297Z" fill="white"/>
<path d="M47.149 31.2297H35.3614C34.77 31.2297 34.2903 31.7081 34.2903 32.2978C34.2903 32.8876 34.77 33.3659 35.3614 33.3659H47.149C47.7404 33.3659 48.2201 32.8876 48.2201 32.2978C48.2201 31.7081 47.7404 31.2297 47.149 31.2297Z" fill="white"/>
<path d="M31.0757 31.2297H23.5752C22.9837 31.2297 22.504 31.7081 22.504 32.2978C22.504 32.8876 22.9837 33.3659 23.5752 33.3659H31.0757C31.6671 33.3659 32.1468 32.8876 32.1468 32.2978C32.1468 31.7081 31.6671 31.2297 31.0757 31.2297Z" fill="white"/>
</svg>
